<?xml version="1.0" encoding="UTF-8"?>
<svg xmlns="http://www.w3.org/2000/svg" xmlns:xlink="http://www.w3.org/1999/xlink" width="2834.88" height="2834.88" viewBox="0 0 2834.88 2834.88">
<path fill-rule="evenodd" fill="rgb(0%, 0%, 0%)" fill-opacity="1" d="M 684.761719 1369.738281 C 684.761719 1369.738281 687.320312 1355.761719 697.902344 1338.378906 C 708.480469 1321 739.46875 1315.710938 768.941406 1308.910156 C 798.417969 1302.101562 970.230469 1210.769531 1005.660156 1198.960938 C 1041.078125 1187.148438 1083.601562 1149.359375 1098.949219 1119.839844 C 1114.300781 1090.320312 1138.839844 1046.191406 1199.058594 985.96875 C 1259.289062 925.738281 1354.378906 890.609375 1354.378906 890.609375 C 1354.378906 890.609375 1353.441406 882.109375 1353.441406 831.089844 C 1353.441406 780.078125 1366.859375 618.460938 1385.648438 541.910156 C 1401.75 476.328125 1427.570312 473.789062 1471.851562 519.921875 C 1516.128906 566.050781 1668.410156 695.109375 1746.558594 772.199219 C 1898.019531 921.628906 2045.058594 1119.75 2109.929688 1292.730469 C 2174.800781 1465.710938 2155.628906 1693.871094 2088.691406 1821.480469 C 2016.058594 1959.929688 1813.390625 2011.464844 1715.359375 2118.136719 C 1617.339844 2224.808594 1608.808594 2345.859375 1608.808594 2345.859375 C 1608.808594 2345.859375 1569.101562 2268.328125 1552.738281 2181.457031 C 1535.78125 2091.300781 1536.910156 1995.3125 1557.800781 1927.34375 C 1571.101562 1884.09375 1590.859375 1849.292969 1601.898438 1817.058594 C 1637.441406 1713.300781 1638.53125 1657.320312 1638.53125 1657.320312 C 1659.570312 1672.601562 1681.859375 1700.300781 1702.140625 1746.03125 C 1715.460938 1776.078125 1726.980469 1815.96875 1740.011719 1857.972656 C 1740.011719 1857.972656 1742 1840.894531 1740.449219 1807.769531 C 1736.828125 1730.359375 1686.941406 1575.28125 1600.21875 1501.480469 C 1513.5 1427.671875 1378.800781 1449.808594 1378.800781 1449.808594 C 1378.800781 1449.808594 1471.058594 1508.859375 1498.738281 1554.988281 C 1514.339844 1581 1521.03125 1656.339844 1512.070312 1738.710938 C 1505.148438 1802.398438 1480.96875 1856.777344 1474.351562 1919.492188 C 1463.898438 2018.496094 1490.988281 2126.605469 1490.988281 2126.605469 C 1490.988281 2126.605469 1444.289062 2034.195312 1431.808594 1951.488281 C 1420.921875 1879.257812 1444.261719 1819.828125 1441.511719 1765.46875 C 1435.609375 1648.851562 1392.800781 1619.328125 1327.851562 1588.328125 C 1262.898438 1557.328125 997.699219 1575.828125 931.570312 1567.570312 C 865.441406 1559.300781 798.882812 1498.96875 798.882812 1498.96875 C 798.882812 1498.96875 765.628906 1490.660156 726.328125 1454.378906 C 687.03125 1418.109375 684.761719 1369.738281 684.761719 1369.738281 Z M 1217.121094 1228.800781 C 1234.980469 1228.988281 1244.269531 1214.910156 1272.738281 1193.738281 C 1291.320312 1179.921875 1317.480469 1168.339844 1317.480469 1168.339844 L 1268.511719 1155.039062 C 1219.539062 1141.738281 1202.539062 1146.300781 1197.171875 1151.421875 C 1189.351562 1158.851562 1187.21875 1193.46875 1195.53125 1213.910156 C 1199.878906 1224.621094 1211.878906 1228.75 1217.121094 1228.800781 Z M 1424.050781 889.570312 C 1424.050781 889.570312 1464.46875 884.578125 1519.699219 895.460938 C 1566.089844 904.589844 1621.628906 920.101562 1621.519531 915.921875 C 1618.140625 793.78125 1580.179688 761.019531 1555.210938 714.730469 C 1527.5 663.371094 1438.070312 549.351562 1438.070312 549.351562 C 1438.070312 549.351562 1411.25 616.761719 1416.789062 818.328125 C 1417.839844 856.410156 1424.050781 889.570312 1424.050781 889.570312 Z M 1342.191406 602.058594 C 1329.230469 684.941406 1323.078125 791.171875 1323.078125 831.089844 C 1323.078125 848.601562 1323.199219 861.371094 1323.359375 870.628906 C 1304.410156 878.96875 1274.589844 893.28125 1243.808594 912.769531 C 1233.871094 839.371094 1223.691406 726.820312 1217.589844 696.960938 C 1211.320312 666.191406 1196.300781 592.339844 1188.859375 547.019531 C 1186.21875 530.929688 1182.910156 518.199219 1184.53125 512.738281 C 1187.011719 504.429688 1199.269531 500.570312 1221.71875 511.320312 C 1232.890625 516.671875 1245.980469 524.101562 1260.109375 532.578125 C 1282.128906 545.800781 1315.328125 576.011719 1342.191406 602.058594 "/>
</svg>
